<svg width="51" height="50" viewBox="0 0 51 50" fill="none" xmlns="http://www.w3.org/2000/svg">
<mask id="mask0_610_1459" style="mask-type:luminance" maskUnits="userSpaceOnUse" x="0" y="0" width="51" height="50">
<path d="M0.883057 50H50.8831V0H0.883057V50Z" fill="white"/>
</mask>
<g mask="url(#mask0_610_1459)">
<path d="M37.7754 26.8429C39.837 26.8429 41.5082 25.1717 41.5082 23.1102C41.5082 21.0486 39.837 19.3775 37.7754 19.3775C35.7139 19.3775 34.0427 21.0486 34.0427 23.1102C34.0427 25.1717 35.7139 26.8429 37.7754 26.8429Z" stroke="black" stroke-miterlimit="10"/>
<path d="M25.8839 26.8429C27.9454 26.8429 29.6167 25.1717 29.6167 23.1102C29.6167 21.0486 27.9454 19.3775 25.8839 19.3775C23.8224 19.3775 22.1511 21.0486 22.1511 23.1102C22.1511 25.1717 23.8224 26.8429 25.8839 26.8429Z" stroke="black" stroke-miterlimit="10"/>
<path d="M13.9911 26.8429C16.0526 26.8429 17.7238 25.1718 17.7238 23.1102C17.7238 21.0487 16.0526 19.3775 13.9911 19.3775C11.9295 19.3775 10.2583 21.0487 10.2583 23.1102C10.2583 25.1718 11.9295 26.8429 13.9911 26.8429Z" stroke="black" stroke-miterlimit="10"/>
</g>
</svg>
