<svg width="51" height="50" viewBox="0 0 51 50" fill="none" xmlns="http://www.w3.org/2000/svg">
<path d="M23.3777 23.4375V18.2292L28.586 20.8333L23.3777 23.4375Z" stroke="black" stroke-miterlimit="10" stroke-linecap="round" stroke-linejoin="round"/>
<path d="M41.1512 19.2708C41.1512 16.3943 34.0905 14.0625 25.4611 14.0625C16.8317 14.0625 9.771 16.3943 9.771 19.2708" stroke="black" stroke-miterlimit="10" stroke-linecap="round" stroke-linejoin="round"/>
<path d="M14.5234 28.5624C17.3551 27.6473 21.218 27.0833 25.4609 27.0833C29.7039 27.0833 33.5668 27.6473 36.3984 28.5624" stroke="black" stroke-miterlimit="10" stroke-linecap="round" stroke-linejoin="round"/>
<path d="M36.3984 22.9167V35.9375C39.3339 34.998 41.151 33.7113 41.151 32.2917V19.2708C41.151 20.6905 39.3339 21.9772 36.3984 22.9167Z" stroke="black" stroke-miterlimit="10" stroke-linecap="round" stroke-linejoin="round"/>
<path d="M14.5235 22.9167V35.9375C11.5888 34.998 9.77222 33.7113 9.77222 32.2917V19.2708C9.77222 20.6905 11.5888 21.9772 14.5235 22.9167Z" stroke="black" stroke-miterlimit="10" stroke-linecap="round" stroke-linejoin="round"/>
</svg>
